<?xml version="1.0" encoding="utf-8"?>
<!-- Generator: Adobe Illustrator 24.1.2, SVG Export Plug-In . SVG Version: 6.00 Build 0)  -->
<svg version="1.1" xmlns="http://www.w3.org/2000/svg" xmlns:xlink="http://www.w3.org/1999/xlink" x="0px" y="0px"
	 viewBox="0 0 236 236" style="enable-background:new 0 0 236 236;" xml:space="preserve">
<style type="text/css">
	.st0{display:none;}
	.st1{fill:#FFFFFF;}
	.st2{fill:#EFEFEF;}
	.st3{display:inline;}
	.st4{clip-path:url(#SVGID_2_);}
	.st5{fill:#FFDFBA;}
	.st6{fill:#FE4F60;}
	.st7{fill:#42434D;}
	.st8{fill:#FFEBD2;}
	.st9{fill:#FFF3E4;}
	.st10{fill:#FFD6A6;}
	.st11{fill:#FF6D7A;}
	.st12{fill:#E84857;}
	.st13{fill:#4D4E59;}
	.st14{clip-path:url(#SVGID_4_);}
	.st15{fill:#F7C388;}
	.st16{fill:#D6F4FC;}
	.st17{fill:#E8F8FC;}
	.st18{fill:#2C2C33;}
	.st19{fill:#BDEFFC;}
</style>
<g id="Слой_1" class="st0">
</g>
<g id="Слой_2">
	<g>
		<circle class="st1" cx="118" cy="117.7" r="118"/>
		<circle class="st2" cx="118" cy="117.7" r="102.5"/>
	</g>
</g>
<g id="Слой_3" class="st0">
	<g class="st3">
		<defs>
			<rect id="SVGID_1_" x="43.5" y="43.4" width="148.5" height="148.5"/>
		</defs>
		<clipPath id="SVGID_2_">
			<use xlink:href="#SVGID_1_"  style="overflow:visible;"/>
		</clipPath>
		<g class="st4">
			<path class="st5" d="M167,176.7v12.6c0,1.4-1.1,2.6-2.6,2.6H71c-1.4,0-2.6-1.1-2.6-2.6v-12.6c0-13.2,10.7-23.9,23.9-23.9
				c4.7,0,8.8-2.4,11.1-6c2.4-3.6,2.1-6.8,2.1-9.4l0-0.1c-11.5-4.8-19.6-16.1-19.6-29.3v-1c-4.6,0-8-3.6-8-7.9V85.9
				C78,81.3,78.2,65,90,53.6c13.7-13.2,35.4-12.1,51.2-5.1c0.5,0.2,0.5,1,0,1.2l-4.1,1.7c-0.6,0.3-0.5,1.2,0.2,1.2l2,0.2
				c9.5,1,18.4,6.2,23.9,14.8c0.1,0.2,0.1,0.6-0.1,0.8c-3.4,3.6-5.3,8.3-5.3,13.3v17.5c0,4.3-3.5,7.9-7.9,7.9h-0.5v1
				c0,13.2-8.1,24.5-19.6,29.3l0,0.1c0,2.5-0.3,5.7,2.1,9.4c2.4,3.6,6.5,6,11.1,6C156.3,152.9,167,163.6,167,176.7z"/>
			<path class="st6" d="M167,176.7v12.6c0,1.4-1.1,2.6-2.6,2.6H71c-1.4,0-2.6-1.1-2.6-2.6v-12.6c0-13.2,10.7-23.9,23.9-23.9
				c4.7,0,8.8-2.4,11.1-6c8.2,7,20.3,7,28.6,0c2.4,3.6,6.5,6,11.1,6C156.3,152.9,167,163.6,167,176.7z"/>
			<path class="st7" d="M163.1,67.7c0.1,0.2,0.1,0.6-0.1,0.8c-3.4,3.6-5.3,8.3-5.3,13.3v17.5c0,4-3,7.9-8.3,7.9V87.3
				c0-8.5-6.9-15.4-15.4-15.4h-32.6c-8.5,0-15.4,6.9-15.4,15.4v19.8c-4.6,0-8-3.6-8-7.9V85.9C78,81.3,78.2,65,90,53.6
				c13.7-13.2,35.4-12.1,51.2-5.1c0.5,0.2,0.5,1,0,1.2l-4.1,1.7c-0.6,0.3-0.5,1.2,0.2,1.2l2,0.2C148.7,53.9,157.6,59.1,163.1,67.7z"
				/>
			<path class="st8" d="M149.4,108.1c0,17.5-14.2,31.7-31.7,31.7c-16.5,0-31.7-12.8-31.7-32.7V87.3c0-8.5,6.9-15.4,15.4-15.4H134
				c8.5,0,15.4,6.9,15.4,15.4V108.1z"/>
			<path class="st1" d="M143.6,186.4H136c-1.4,0-2.6-1.1-2.6-2.6c0-1.4,1.1-2.6,2.6-2.6h7.7c1.4,0,2.6,1.1,2.6,2.6
				C146.2,185.3,145.1,186.4,143.6,186.4z"/>
			<path class="st9" d="M110.6,128.5c5.2,3.3,1.1,11.2-4.6,9c-11.7-4.7-19.9-16.1-19.9-29.4V87.3c0-3.2,1-6.2,2.7-8.7
				c2.1-3,6.9-1.7,6.9,2.3v20.8C95.7,113.4,101.8,123.1,110.6,128.5z"/>
			<path class="st10" d="M130.3,142.7c-7.9,3.3-16.5,3.6-25,0c0.4-1.8,0.4-3,0.4-5.3l0-0.1c7.7,3.2,16.5,3.2,24.2,0l0,0.1
				C129.9,139.8,129.8,140.9,130.3,142.7z"/>
			<path class="st11" d="M105.2,160.6c-1.2,0.4-2.5,0.6-3.8,0.6c-13.2,0.1-24,10.6-24,23.8v2.4c0,2.5-2,4.5-4.5,4.5H71
				c-1.4,0-2.6-1.1-2.6-2.6v-12.6c0-13.2,10.7-23.9,23.9-23.9c4.7,0,8.8-2.4,11.1-6c1,0.8,2,1.5,3,2.2
				C111.2,151.8,110.5,159,105.2,160.6z"/>
			<path class="st12" d="M130.2,160.6c1.2,0.4,2.5,0.6,3.8,0.6c13.2,0.1,24,10.6,24,23.8v2.4c0,2.5,2,4.5,4.5,4.5h1.9
				c1.4,0,2.6-1.1,2.6-2.6v-12.6c0-13.2-10.7-23.9-23.9-23.9c-4.7,0-8.8-2.4-11.1-6c-1,0.8-2,1.5-3,2.2
				C124.3,151.8,125,159,130.2,160.6z"/>
			<path class="st13" d="M141.1,49.7c-3.8,1.5-4.3,1.9-5.6,1.7c-21-3.3-39.4,5.4-45.7,25.8v0c-2.3,2.7-3.8,6.2-3.8,10.1v12
				c0,5.2-8,5.5-8-0.1V85.9C78,81.3,78.2,65,90,53.6c13.7-13.2,35.4-12.1,51.2-5.1C141.7,48.8,141.6,49.5,141.1,49.7z"/>
		</g>
	</g>
</g>
<g id="Слой_4">
	<g>
		<defs>
			<rect id="SVGID_3_" x="44.5" y="44.2" width="147" height="147"/>
		</defs>
		<clipPath id="SVGID_4_">
			<use xlink:href="#SVGID_3_"  style="overflow:visible;"/>
		</clipPath>
		<g class="st14">
			<path class="st10" d="M166.8,176.2v12.4c0,1.4-1.1,2.5-2.5,2.5H71.7c-1.4,0-2.5-1.1-2.5-2.5v-12.4c0-7.8,3.8-14.7,9.5-18.9V75.7
				c0-17.4,14.1-31.5,31.5-31.5h15.8c17.4,0,31.5,14.1,31.5,31.5v81.8C162.9,161.5,166.8,168.4,166.8,176.2z"/>
			<path class="st7" d="M166.8,176.2v12.4c0,1.4-1.1,2.5-2.5,2.5H71.7c-1.4,0-2.5-1.1-2.5-2.5v-12.4c0-13.1,10.6-23.6,23.6-23.6
				c1.9,0,3.7-0.4,5.4-1.1c0,0-0.2-0.2,19.8,15.3c19.9-15.4,19.8-15.3,19.8-15.3c1.6,0.7,3.4,1.1,5.4,1.1
				C156.2,152.6,166.8,163.2,166.8,176.2z"/>
			<path class="st7" d="M149.4,108.2V92.2c0-0.8-0.5-1.5-1.3-1.8c-5.7-2-10.6-6-13.7-11.4c-0.7-1.2-2.5-1.3-3.2-0.1
				c-3.2,4.9-7.6,8.9-12.8,11.6c-1.3,0.7-2.8-0.2-2.8-1.7c0-1.1-0.1-2.1-0.4-3.1c-0.4-1.5-2.3-2-3.3-0.8
				c-5.6,6.7-14.2,10.1-23.1,8.6c-1.2-0.2-2.2,0.7-2.2,1.9v12.8c0,13.1,8,24.3,19.4,29l0,0.1v2.2c0,7.3-5.9,13.1-13.1,13.1
				c-5.3,0-10.2,1.7-14.1,4.7V75.7c0-17.4,14.1-31.5,31.5-31.5h15.8c17.4,0,31.5,14.1,31.5,31.5v81.8c-4-3.1-9-4.9-14.4-4.9
				c-7.2,0-13.1-5.8-13.1-13.1v-2.2l0-0.1C141.4,132.5,149.4,121.3,149.4,108.2z"/>
			<path class="st5" d="M148.1,90.4c0.8,0.3,1.3,1,1.3,1.8v16.1c0,13.1-8,24.3-19.4,29c-20.6,8.5-43.4-6.6-43.4-29V95.4
				c0-1.2,1-2.1,2.2-1.9c8.8,1.4,17.5-1.9,23.1-8.6c1-1.2,2.9-0.8,3.3,0.8c0.2,1,0.4,2.1,0.4,3.1c0,1.5,1.5,2.4,2.8,1.7
				c5.1-2.7,9.5-6.7,12.8-11.6c0.8-1.2,2.5-1.1,3.2,0.1C137.4,84.4,142.3,88.4,148.1,90.4z"/>
			<path class="st6" d="M118,166.8c0.5,0.2,1.7,0.8,3.4,1.4l6.1,23h-19l6.1-23C116.3,167.6,117.5,167,118,166.8z"/>
			<path class="st15" d="M130.4,142.5c-7.8,3.3-16.4,3.5-24.8,0c0.4-1.8,0.4-2.9,0.4-5.2l0-0.1c7.6,3.2,16.3,3.2,24,0l0,0.1
				C130,139.6,130,140.8,130.4,142.5z"/>
			<path class="st13" d="M137.9,46.5c3.9,1.6,2.6,7.3-1.6,7.2c-0.6,0-16.9,0-16.6,0c-17.4,0-31.5,14.1-31.5,31.5v8.3
				c-0.9,0.1-1.6,0.9-1.6,1.9c0,13.5-0.4,16.7,1.6,22.7V153c-3.5,0.7-6.7,2.2-9.5,4.2V75.7c0-17.4,14.1-31.5,31.5-31.5h15.8
				C130.3,44.2,134.3,45,137.9,46.5z"/>
			<path class="st8" d="M110.9,128.5c5.2,3.2,1.1,11.1-4.6,8.9c-11.6-4.7-19.7-16-19.7-29.1V95.4c0-1.2,1-2.1,2.2-1.9
				c0.9,0.1,1.7,0.2,2.6,0.3c2.7,0.2,4.7,2.3,4.7,5v3.1C96.1,113.5,102.2,123.1,110.9,128.5z"/>
			<path class="st13" d="M106.8,158.1c-1.4,0.5-2.9,0.8-4.5,0.8c-13,0-23.6,10.5-23.6,23.6v8.6h-7c-1.4,0-2.5-1.1-2.5-2.5v-12.4
				c0-13.1,10.6-23.6,23.6-23.6c1.9,0,3.7-0.4,5.4-1.1C98.2,151.5,98.1,151.4,106.8,158.1z"/>
			<path class="st16" d="M118,166.8c-13.2,6.3-30.2,5.1-40.1-8.9c4.4-3.6,9.7-5.3,15-5.3c1.9,0,3.7-0.4,5.4-1.1
				C98.2,151.5,97.9,151.3,118,166.8z"/>
			<path class="st17" d="M100.2,153c2.4,1.9,1.4,5.7-1.5,6.2c-5,0.8-9.5,3.1-12.9,6.5c-3.8-2.5-6.3-5.5-7.9-7.8
				c4.4-3.6,9.6-5.3,15-5.3c1.9,0,3.7-0.4,5.4-1.1v0L100.2,153z"/>
			<path class="st18" d="M129.2,158.1c1.4,0.5,2.9,0.8,4.5,0.8c13,0,23.6,10.5,23.6,23.6v8.6h7c1.4,0,2.5-1.1,2.5-2.5v-12.4
				c0-13.1-10.6-23.6-23.6-23.6c-1.9,0-3.7-0.4-5.4-1.1C137.8,151.5,137.9,151.4,129.2,158.1z"/>
			<path class="st16" d="M158.1,157.9c-9.9,13.9-26.8,15.2-40.1,8.9c19.9-15.4,19.8-15.3,19.8-15.3c1.6,0.7,3.4,1.1,5.4,1.1
				C148.9,152.6,154.2,154.7,158.1,157.9z"/>
			<path class="st19" d="M135.8,153c-2.4,1.9-1.4,5.7,1.5,6.2c5,0.8,9.5,3.1,12.9,6.5c3.8-2.5,6.3-5.5,7.9-7.8
				c-4.4-3.6-9.6-5.3-15-5.3c-1.9,0-3.7-0.4-5.4-1.1v0L135.8,153z"/>
			<path class="st11" d="M118,166.8l-3.2,24.4h-6.3l6.1-23C116.3,167.6,117.5,167,118,166.8z"/>
		</g>
	</g>
</g>
</svg>
