<?xml version="1.0" encoding="utf-8"?>
<!-- Generator: Adobe Illustrator 24.1.2, SVG Export Plug-In . SVG Version: 6.00 Build 0)  -->
<svg version="1.1" id="Слой_1" xmlns="http://www.w3.org/2000/svg" xmlns:xlink="http://www.w3.org/1999/xlink" x="0px" y="0px"
	 viewBox="0 0 150 150" style="enable-background:new 0 0 150 150;" xml:space="preserve">
<style type="text/css">
	.st0{fill:#FFFFFF;}
</style>
<g>
	<path d="M4.5,22.3c0-10.5,8.4-18.9,18.9-18.9h102.8c10.5,0,18.9,8.4,18.9,18.9v88.1c0,10.5-8.4,18.9-18.9,18.9H74.5
		c-5.5,0-10.5,3.6-12.2,8.8c-3.6,11.3-19.5,12-23.9,0.8l-0.2-1.3c-1.9-5-6.9-8.4-12.2-8.4h-3.4c-10.1,0-18-8.2-18-18V22.3H4.5z"/>
</g>
<path class="st0" d="M115.8,85.8L78.5,61.9v-6.3c2.5-0.6,4.8-2.1,6.5-4c1.7-1.9,2.9-4.2,3.4-6.7c0.4-2.5,0.2-5.2-0.6-7.6
	c-0.8-2.3-2.5-4.6-4.6-6.1c-2.1-1.5-4.6-2.5-7.1-2.7c-2.5-0.2-5.2,0.2-7.6,1.5c-2.3,1-4.2,2.9-5.7,5c-1.3,2.1-2.1,4.8-2.1,7.3h7.6
	c0-1.3,0.4-2.5,1-3.6c0.6-1,1.7-1.9,2.9-2.3s2.5-0.6,3.6-0.4c1.3,0.2,2.3,0.8,3.1,1.7c0.8,0.8,1.5,2.1,1.7,3.1
	c0.2,1.3,0.2,2.5-0.4,3.6c-0.4,1.3-1.3,2.1-2.3,2.9c-1,0.6-2.3,1-3.6,1h-3.8v13.2L33.6,85.8c-2.3,1.5-4,3.8-5,6.3
	c-1,2.5-1,5.5-0.2,8c0.8,2.7,2.3,5,4.6,6.5c2.1,1.7,4.8,2.5,7.6,2.5h68.4c2.7,0,5.5-0.8,7.6-2.5c2.1-1.7,3.8-4,4.6-6.5
	c0.8-2.7,0.6-5.5-0.2-8C120,89.6,118.2,87.3,115.8,85.8z M108.9,101.6H40.5c-1,0-2.3-0.4-3.1-1c-0.8-0.6-1.5-1.7-1.9-2.7
	c-0.4-1-0.2-2.3,0.2-3.4c0.4-1,1-1.9,2.1-2.5l36.9-23.5l36.9,23.7c0.8,0.6,1.7,1.5,2.1,2.5c0.4,1,0.4,2.1,0.2,3.4s-1,2.1-1.9,2.7
	C111.2,101.3,110.2,101.6,108.9,101.6L108.9,101.6z"/>
</svg>
