<?xml version="1.0" encoding="utf-8"?>
<!-- Generator: Adobe Illustrator 24.1.2, SVG Export Plug-In . SVG Version: 6.00 Build 0)  -->
<svg version="1.1" id="Слой_1" xmlns="http://www.w3.org/2000/svg" xmlns:xlink="http://www.w3.org/1999/xlink" x="0px" y="0px"
	 viewBox="0 0 79 98" style="enable-background:new 0 0 79 98;" xml:space="preserve">
<style type="text/css">
	.st0{fill:#FFFFFF;}
</style>
<g>
	<circle cx="18" cy="82" r="6"/>
</g>
<g>
	<path d="M6.1,12c0-5,4-9,9-9h49c5,0,9,4,9,9v42c0,5-4,9-9,9H39.5c-2.6,0-5,1.7-5.8,4.2c-1.7,5.4-9.3,5.7-11.4,0.4L22.2,67
		c-0.9-2.4-3.3-4-5.8-4h-1.6c-4.8,0-8.6-3.9-8.6-8.6V12z"/>
</g>
<path class="st0" d="M59.2,42.3L41.4,30.9v-3c1.2-0.3,2.3-1,3.1-1.9s1.4-2,1.6-3.2c0.2-1.2,0.1-2.5-0.3-3.6
	c-0.4-1.1-1.2-2.2-2.2-2.9c-1-0.7-2.2-1.2-3.4-1.3c-1.2-0.1-2.5,0.1-3.6,0.7c-1.1,0.5-2,1.4-2.7,2.4c-0.6,1-1,2.3-1,3.5h3.6
	c0-0.6,0.2-1.2,0.5-1.7c0.3-0.5,0.8-0.9,1.4-1.1c0.6-0.2,1.2-0.3,1.7-0.2c0.6,0.1,1.1,0.4,1.5,0.8c0.4,0.4,0.7,1,0.8,1.5
	c0.1,0.6,0.1,1.2-0.2,1.7c-0.2,0.6-0.6,1-1.1,1.4c-0.5,0.3-1.1,0.5-1.7,0.5h-1.8v6.3L20,42.3c-1.1,0.7-1.9,1.8-2.4,3
	c-0.5,1.2-0.5,2.6-0.1,3.8c0.4,1.3,1.1,2.4,2.2,3.1c1,0.8,2.3,1.2,3.6,1.2h32.6c1.3,0,2.6-0.4,3.6-1.2c1-0.8,1.8-1.9,2.2-3.1
	c0.4-1.3,0.3-2.6-0.1-3.8S60.3,43,59.2,42.3z M55.9,49.8H23.3c-0.5,0-1.1-0.2-1.5-0.5c-0.4-0.3-0.7-0.8-0.9-1.3
	c-0.2-0.5-0.1-1.1,0.1-1.6c0.2-0.5,0.5-0.9,1-1.2L39.6,34l17.6,11.3c0.4,0.3,0.8,0.7,1,1.2c0.2,0.5,0.2,1,0.1,1.6s-0.5,1-0.9,1.3
	C57,49.7,56.5,49.8,55.9,49.8L55.9,49.8z"/>
</svg>
