<svg width="118" height="18" viewBox="0 0 118 18" fill="none" xmlns="http://www.w3.org/2000/svg">
<path d="M19.72 0.199999L12.52 17H7.84L0.664 0.199999H5.8L10.36 11.144L15.016 0.199999H19.72ZM27.3754 3.872V7.568H34.7914V11.24H27.3754V17H22.6234V0.199999H35.7994V3.872H27.3754ZM47.2859 12.536H44.6939V17H39.9419V0.199999H47.6219C49.1419 0.199999 50.4619 0.455999 51.5819 0.967999C52.7019 1.464 53.5659 2.184 54.1739 3.128C54.7819 4.056 55.0859 5.152 55.0859 6.416C55.0859 7.632 54.7979 8.696 54.2219 9.608C53.6619 10.504 52.8539 11.208 51.7979 11.72L55.4219 17H50.3339L47.2859 12.536ZM50.2859 6.416C50.2859 5.632 50.0379 5.024 49.5419 4.592C49.0459 4.16 48.3099 3.944 47.3339 3.944H44.6939V8.864H47.3339C48.3099 8.864 49.0459 8.656 49.5419 8.24C50.0379 7.808 50.2859 7.2 50.2859 6.416ZM65.9395 17.216C64.5475 17.216 63.2915 16.928 62.1715 16.352C61.0515 15.776 60.1715 14.976 59.5315 13.952C58.9075 12.928 58.5955 11.768 58.5955 10.472C58.5955 9.192 58.9075 8.04 59.5315 7.016C60.1715 5.992 61.0435 5.2 62.1475 4.64C63.2675 4.064 64.5315 3.776 65.9395 3.776C67.3475 3.776 68.6115 4.064 69.7315 4.64C70.8515 5.2 71.7235 5.992 72.3475 7.016C72.9715 8.024 73.2835 9.176 73.2835 10.472C73.2835 11.768 72.9715 12.928 72.3475 13.952C71.7235 14.976 70.8515 15.776 69.7315 16.352C68.6115 16.928 67.3475 17.216 65.9395 17.216ZM65.9395 13.592C66.7395 13.592 67.3955 13.32 67.9075 12.776C68.4195 12.216 68.6755 11.448 68.6755 10.472C68.6755 9.512 68.4195 8.76 67.9075 8.216C67.3955 7.672 66.7395 7.4 65.9395 7.4C65.1395 7.4 64.4835 7.672 63.9715 8.216C63.4595 8.76 63.2035 9.512 63.2035 10.472C63.2035 11.448 63.4595 12.216 63.9715 12.776C64.4835 13.32 65.1395 13.592 65.9395 13.592ZM83.8439 17.216C82.4519 17.216 81.1959 16.928 80.0759 16.352C78.9559 15.776 78.0759 14.976 77.4359 13.952C76.8119 12.928 76.4999 11.768 76.4999 10.472C76.4999 9.192 76.8119 8.04 77.4359 7.016C78.0759 5.992 78.9479 5.2 80.0519 4.64C81.1719 4.064 82.4359 3.776 83.8439 3.776C85.2519 3.776 86.5159 4.064 87.6359 4.64C88.7559 5.2 89.6279 5.992 90.2519 7.016C90.8759 8.024 91.1879 9.176 91.1879 10.472C91.1879 11.768 90.8759 12.928 90.2519 13.952C89.6279 14.976 88.7559 15.776 87.6359 16.352C86.5159 16.928 85.2519 17.216 83.8439 17.216ZM83.8439 13.592C84.6439 13.592 85.2999 13.32 85.8119 12.776C86.3239 12.216 86.5799 11.448 86.5799 10.472C86.5799 9.512 86.3239 8.76 85.8119 8.216C85.2999 7.672 84.6439 7.4 83.8439 7.4C83.0439 7.4 82.3879 7.672 81.8759 8.216C81.3639 8.76 81.1079 9.512 81.1079 10.472C81.1079 11.448 81.3639 12.216 81.8759 12.776C82.3879 13.32 83.0439 13.592 83.8439 13.592ZM112.164 3.776C113.764 3.776 115.036 4.256 115.98 5.216C116.94 6.176 117.42 7.624 117.42 9.56V17H112.86V10.304C112.86 9.392 112.684 8.72 112.332 8.288C111.996 7.856 111.516 7.64 110.892 7.64C110.204 7.64 109.652 7.88 109.236 8.36C108.82 8.84 108.612 9.568 108.612 10.544V17H104.052V10.304C104.052 8.528 103.396 7.64 102.084 7.64C101.38 7.64 100.82 7.88 100.404 8.36C99.9882 8.84 99.7802 9.568 99.7802 10.544V17H95.2202V3.992H99.5642V5.36C100.044 4.832 100.612 4.44 101.268 4.184C101.94 3.912 102.668 3.776 103.452 3.776C104.364 3.776 105.18 3.944 105.9 4.28C106.62 4.616 107.204 5.128 107.652 5.816C108.164 5.16 108.812 4.656 109.596 4.304C110.38 3.952 111.236 3.776 112.164 3.776Z" fill="black"/>
</svg>
